# xmcd
#
# Track frame offsets:
#	150
#	11600
#	23987
#	34977
#	47072
#	58332
#	72465
#	83227
#	96435
#	109915
#	124747
#	134512
#	146852
#	157117
#	168185
#	178772
#	189447
#	202882
#	213845
#	226662
#
# Disc length: 3158
#
# Revision: 1
# Processed by: cddbd v1.5.1PL0 Copyright (c) Steve Scherf et al.
# Submitted via: VisiTrax 2.9.5.180 - For more info visit www.synapsa.com
# Normalized: r0:DSETVAR1
#
DISCID=250c5414
DTITLE=Various Artist - Just Country 40 Golden Greats disc 1
DYEAR=1996
DGENRE=
TTITLE0=Conway Twitty - Hello darlin'
TTITLE1=Bobby Bare - Streets of Baltomore
TTITLE2=Kenny Rogers - She even woke me up to say goodbye
TTITLE3=Don Williams - On her way to being a woman
TTITLE4=George Jones - Swinging doors
TTITLE5=Del Shannon - Your cheating heart
TTITLE6=Waylon Jennings - Burning memories
TTITLE7=Gene Pitney - She thinks I still care
TTITLE8=Hank Thompson - The wild side of life
TTITLE9=Billy Walker - Honky tonkitis
TTITLE10=Don Gibson - Take these chains from my heart
TTITLE11=Willie Nelson - End og understanding
TTITLE12=David Huston - I fall to pieces
TTITLE13=Ned Miller - King of the road
TTITLE14=Faron Young - Here comes my baby back agian
TTITLE15=Johnny Paycheck - Juke box Charlie
TTITLE16=Freddy Fender - Just because
TTITLE17=George Jones - Gene Pitney - Why, baby why
TTITLE18=Jack Greene - Beautiful lady
TTITLE19=Johnny Russell - Jambalaya
EXTD=
EXTT0=
EXTT1=
EXTT2=
EXTT3=
EXTT4=
EXTT5=
EXTT6=
EXTT7=
EXTT8=
EXTT9=
EXTT10=
EXTT11=
EXTT12=
EXTT13=
EXTT14=
EXTT15=
EXTT16=
EXTT17=
EXTT18=
EXTT19=
PLAYORDER=
